# xmcd CD database file
#
# Track frame offsets:
#	150
#	36005
#	51852
#	77650
#	91382
#	107760
#	115905
#	139715
#	150357
#	171815
#	189160
#
# Disc length: 2828 seconds
#
# Revision: 0
# Processed by: cddbd v1.5.1PL2 Copyright (c) Steve Scherf et al.
# Submitted via: CDex 1.51
#
DISCID=7f0b0a0b
DTITLE=Tuva - Voices from the Land of the Eagles (1993 Paradox)
DYEAR=1993
DGENRE=World
TTITLE0=Tuva - Igilding Iizi - Lament By The Igil About A Departed Horse 
TTITLE1=Tuva - Toruktug Dolgai Tangdim - The Taiga Is Full Of Cedar-Nuts
TTITLE2=Tuva - Tying Siirtuktiilerining Iri - The Song Of The Caravan-Drover 
TTITLE3=Tuva - Bayan Dugai Koshkarliimni - The Mountain Bayan-Dugai
TTITLE4=Tuva - Khomushka Ayalgalar - Melodies On The Jew's-Harp
TTITLE5=Tuva - Ches Bulungum - The Town Of Ches-Bulungum 
TTITLE6=Tuva - Sigit, Kargiraa And Khoomei - Examples Of Singing Styles
TTITLE7=Tuva - Karagiraa-Style Song
TTITLE8=Tuva - Khomus:Soosken K.- Daya K-Tyarti K-Sheler K-Demir Khomuses' 
TTITLE9=Tuva - Iikistiing Iri - The song of the orphan child
TTITLE10=Tuva - Tuva Kozhangnar - Tuvinian comical folk refrains
EXTD=YEAR: 1993
EXTT0=
EXTT1=
EXTT2=
EXTT3=
EXTT4=
EXTT5=
EXTT6=
EXTT7=
EXTT8=
EXTT9=
EXTT10=
PLAYORDER=
